<svg xmlns="http://www.w3.org/2000/svg" version="1.1" xmlns:xlink="http://www.w3.org/1999/xlink" xmlns:svgjs="http://svgjs.dev/svgjs" width="1000" height="1125" viewBox="0 0 1000 1125"><g transform="matrix(1,0,0,1,0.00007343750002064553,0)"><svg viewBox="0 0 320 360" data-background-color="#ffffff" preserveAspectRatio="xMidYMid meet" height="1125" width="1000" xmlns="http://www.w3.org/2000/svg" xmlns:xlink="http://www.w3.org/1999/xlink"><g id="tight-bounds" transform="matrix(1,0,0,1,0.000023499999997511622,0)"><svg viewBox="0 0 320 360" height="360" width="320"><g><svg></svg></g><g><svg viewBox="0 0 320 360" height="360" width="320"><g><path transform="translate(-74.99272,-51.79039) scale(4.65793,4.65793)" d="M20.6 59.9l0.8 1-0.4-1.3c-0.1-0.6-0.8 0.1-0.4 0.3M21.5 59.3c0.3 0.5 0.6 1 0.6 1.5 0 0.7 0.6 1 1.1 1.2-0.7-0.8-1.1-3-1.7-2.7M59.9 16.9c1.7 0 3.3-0.2 5.1 0.2 4.4 1.1 8.1 3.3 10.6 6.4l7 11.2c0.3 2.8 0.9 5.9 0.8 9.3 0.7 0 0.6-1 1.4-1.2-0.8 2-1.2 4.5-1.4 7.4-0.5-1.6 0-4 0.1-5.3-0.7 1.1-1.1 0.3-1.1-0.2 0.1-0.8-0.3-0.7-0.6-1-1.1-1-1.8-2.1-2.6-3.8 0.5-1.3 0.6-3.2-1-4.2-0.5-0.3-1.1-0.8-1.4-1.6-0.4-1.1-1.1-2.4-0.9-4.1 0.1-0.5-1.5 1.1-2.4 0.4-3.9-2.7-7.8-5.8-12.5-8.4-2.5 0-4.3-0.9-5.2-2-0.8-1-0.2-2.3 1-2.4 0.7 0 1.5-0.2 2.1 0.2 0.1-0.4 0.5-0.9 1-0.9M50 14.6l0.2 0.1c1 0.2 1.5 1.6 2.6 1.1 0 0.7 0.1 1.4-0.1 1.9-0.3 0.8-1.2 0.8-1.9 0.8-6.7-0.4-10.6 2.4-14.7 4.8-1.1 0.7-2.3 1.2-3.2 2.1-4.3 4-9 7.7-10.1 15.1l-0.9 8.2c-0.1 0.9-1.1 1.8-0.9 2.9l0.7 4.9c-0.7-0.7-1.1 0.2-0.9 0.6 0.1 0.3 0.5 1.3 1.1 0.4 0.8 1.5 1.6 4.4 2.7 5.7 3.4 4 7.8 7.6 11.4 11.2 0.9-0.2 1.6-0.2 1.8-0.8 0.3 0.6-0.3 1.2-0.8 1.3 1.6 1 3.4 1.9 5.8 2.1 3.1 0.2 6 0.7 8.7 1.4 1.4-0.4 2.8-0.6 4.3-0.7 0.5 0 0.8-0.8 1.4-1l0.1-1c0.6 0.9 0.5-0.3 0.1-0.9 0.7 0.6 0.9 1.1 1.2 1.5 0-0.3 0.8-1.4 0.8-0.1l0.2-1.3c0.3-0.2 0.4 1.1 0.7 0.2 0.3-0.9 0.9-0.2 1.5-0.5-0.2 0.4-0.1 1.2 0.6 0.7l0.8-0.7c0.5 1.2 1.3 0.7 1.7 0.5 4.4-2.8 8.8-6.1 13-9.4l-0.1 1.3 0.5-1.6c0.5 0.5 0.9 0.1 1.1-0.2 0.6-1 1.4-2 2.7-2.9-1.6 4.3-3.5 7.7-5.9 10.5l-1 1.2c0 0.7-0.2 1.6-1 1.7-0.4 0.1-1.2-0.2-1.8 0.4-0.3 0.4 0.7 1.2-0.1 0.6-0.7-0.5-1.4 0-2.2 0.2-0.6 0.2 0.4 0.8 0.6 1.2 0.2 0.4 0.4 0.8 0.3 1.3l-1.1-1.2c-1.3 0.7-2.1 2-3.2 3-0.5 0.4-0.3 1.1-0.3 1.7-0.7 0-1.5-0.2-1.9 0.2-0.3 0.4-0.2 1-0.2 1.6-1-0.1-1.1-1.6-2-1.3-0.9 0.2-1.9 0.3-2.7 0.8 0.6 1.2-1 0.5-0.8 0.7-1.5-0.9-2.8-1.6-4.4-1-3.4-1.1-7.6-0.6-10.7-0.2 0-0.5 0.1-1-0.1-1.1-0.2 0.5-0.8 0.3-0.7 0.3-1.9-1.3-3.8-2.1-5.8-3.2-1.8 0.2-3.5-0.7-4-1.2-1.4-1.3-3-0.6-4.3-0.9-2.8-0.7-3.8-3.6-4.1-5.6-0.2-1-1-1.4-1.3-1.3-1.3-4.2-3.3-8-4.9-11.9-0.4-1-0.3-2-0.3-3.1 0.5 0.2 1 0.1 0.9-0.6-0.5-3.3-1.7-5.8-3-8.2 0.7-3.4 0.8-7.4 2.4-10.4 1.4-2.7 4-4.1 5.8-6.4 0.6-0.8 0.6-1.9 1.2-2.6 2-2 4-4.1 6.2-5.9 1-0.8 2.2 0 3.7-0.3 0.5-1.8 2.5-3.4 4.4-2.9 0.8 0.2 2.4-1.9 2.9-2.1 0.8-0.3 0.4 0.8 0.4 1.5 1.9-1.5 4.5-2.3 6.9-3.2" fill="#ea3c12" fill-rule="nonzero" stroke="none" stroke-width="1" stroke-linecap="butt" stroke-linejoin="miter" stroke-miterlimit="10" stroke-dasharray="" stroke-dashoffset="0" font-family="none" font-weight="none" font-size="none" text-anchor="none" style="mix-blend-mode: normal" data-fill-palette-color="tertiary"></path></g><g transform="matrix(1,0,0,1,109.71796578722835,90)"><svg viewBox="0 0 100.5640684255433 180" height="180" width="100.5640684255433"><g><svg viewBox="0 0 100.5640684255433 180" height="180" width="100.5640684255433"><g><svg viewBox="0 0 176.0204081632653 315.05958306416426" height="180" width="100.5640684255433"><g transform="matrix(1,0,0,1,0,135.05958306416426)"><svg viewBox="0 0 176.0204081632653 180" height="180" width="176.0204081632653"><g id="textblocktransform"><svg viewBox="0 0 176.0204081632653 180" height="180" width="176.0204081632653" id="textblock"><g><svg viewBox="0 0 176.0204081632653 180" height="180" width="176.0204081632653"><g transform="matrix(1,0,0,1,0,0)"><svg width="176.0204081632653" viewBox="2.7 -29.4 28.75 29.4" height="180" data-palette-color="#ea3c12"><path d="M7.65 0L2.7 0 2.7-28.9 7.65-28.9 7.65-26.15Q9.1-27.8 10.85-28.6 12.6-29.4 14.45-29.4L14.45-29.4Q16.05-29.4 17.32-28.6 18.6-27.8 19.15-25.75L19.15-25.75Q20.7-27.65 22.53-28.53 24.35-29.4 26.35-29.4L26.35-29.4Q27.75-29.4 28.9-28.73 30.05-28.05 30.75-26.58 31.45-25.1 31.45-22.7L31.45-22.7 31.45 0 26.55 0 26.55-22.35Q26.55-24.45 25.88-25.18 25.2-25.9 24.05-25.9L24.05-25.9Q22.95-25.9 21.75-25.28 20.55-24.65 19.55-23.55L19.55-23.55Q19.55-23.35 19.55-23.15 19.55-22.95 19.55-22.7L19.55-22.7 19.55 0 14.65 0 14.65-22.35Q14.65-24.45 13.98-25.18 13.3-25.9 12.15-25.9L12.15-25.9Q11.05-25.9 9.88-25.28 8.7-24.65 7.65-23.55L7.65-23.55 7.65 0Z" opacity="1" transform="matrix(1,0,0,1,0,0)" fill="#ea3c12" class="wordmark-text-0" data-fill-palette-color="primary" id="text-0"></path></svg></g></svg></g></svg></g></svg></g><g transform="matrix(1,0,0,1,33.619897959183675,0)"><svg viewBox="0 0 108.78061224489795 108.79326306416425" height="108.79326306416425" width="108.78061224489795"><g><svg xmlns="http://www.w3.org/2000/svg" xmlns:xlink="http://www.w3.org/1999/xlink" version="1.1" x="0" y="0" viewBox="7.0631382878062885 6.651814309743116 85.23827276587562 85.24818569025689" style="enable-background:new 0 0 100 100;" xml:space="preserve" height="108.79326306416425" width="108.78061224489795" class="icon-icon-0" data-fill-palette-color="accent" id="icon-0"><path d="M28.9 91.9c-1.5 0-3-0.3-4.4-0.8-4.5-1.6-7.8-5.3-8.7-10L7.3 36.7c-0.9-4.7 0.8-9.6 4.5-12.7L28.6 9.8c3.7-3.1 8.8-4 13.2-2.3l41.9 15.7c4.5 1.7 7.6 5.5 8.4 10.2 0.8 4.7-0.8 9.3-4.5 12.4L37.5 88.7C35.1 90.8 32 91.9 28.9 91.9zM37.2 12.7c-1.7 0-3.4 0.6-4.7 1.7L15.6 28.6c-2 1.7-3 4.4-2.5 7L21.7 80c0.5 2.6 2.3 4.6 4.8 5.5 2.5 0.9 5.2 0.4 7.2-1.3l50.2-42.9c2-1.7 2.9-4.2 2.5-6.8-0.5-2.6-2.2-4.7-4.6-5.6L39.7 13.2C38.9 12.8 38 12.7 37.2 12.7z" fill="#ea9937" data-fill-palette-color="accent"></path></svg></g></svg></g><g></g></svg></g></svg></g></svg></g></svg></g><defs></defs></svg><rect width="320" height="360" fill="none" stroke="none" visibility="hidden"></rect></g></svg></g></svg>